<svg xmlns="http://www.w3.org/2000/svg" viewBox="0 0 24 24" width="24" height="24">
  <path fill="currentColor" d="M14 2H6a2 2 0 0 0-2 2v16a2 2 0 0 0 2 2h12a2 2 0 0 0 2-2V8l-6-6z"/>
  <path fill="none" stroke="currentColor" stroke-width="0.5" d="M14 2H6a2 2 0 0 0-2 2v16a2 2 0 0 0 2 2h12a2 2 0 0 0 2-2V8l-6-6z"/>
  <polyline fill="none" stroke="var(--vscode-sideBar-background, #1e1e1e)" stroke-width="1.5" points="14 2 14 8 20 8"/>
  <line stroke="var(--vscode-sideBar-background, #1e1e1e)" stroke-width="1.5" x1="8" y1="13" x2="16" y2="13"/>
  <line stroke="var(--vscode-sideBar-background, #1e1e1e)" stroke-width="1.5" x1="8" y1="17" x2="13" y2="17"/>
  <line stroke="var(--vscode-sideBar-background, #1e1e1e)" stroke-width="1.5" x1="8" y1="9" x2="10" y2="9"/>
</svg>
